<mxfile host="Electron" agent="Mozilla/5.0 (Windows NT 10.0; Win64; x64) AppleWebKit/537.36 (KHTML, like Gecko) draw.io/24.7.17 Chrome/128.0.6613.36 Electron/32.0.1 Safari/537.36" version="24.7.17">
  <diagram name="Página-1" id="oYrlzJaptODQzdBYlMzJ">
    <mxGraphModel dx="2074" dy="1196" grid="1" gridSize="10" guides="1" tooltips="1" connect="1" arrows="1" fold="1" page="1" pageScale="1" pageWidth="827" pageHeight="1169" math="0" shadow="0">
      <root>
        <mxCell id="0" />
        <mxCell id="1" parent="0" />
        <mxCell id="S9SIUEtnzLuoG3j6Cy7E-7" style="edgeStyle=orthogonalEdgeStyle;rounded=0;orthogonalLoop=1;jettySize=auto;html=1;exitX=0.5;exitY=1;exitDx=0;exitDy=0;entryX=1;entryY=0.5;entryDx=0;entryDy=0;" edge="1" parent="1" source="S9SIUEtnzLuoG3j6Cy7E-1" target="S9SIUEtnzLuoG3j6Cy7E-5">
          <mxGeometry relative="1" as="geometry" />
        </mxCell>
        <mxCell id="S9SIUEtnzLuoG3j6Cy7E-40" style="edgeStyle=orthogonalEdgeStyle;rounded=0;orthogonalLoop=1;jettySize=auto;html=1;exitX=0.5;exitY=0;exitDx=0;exitDy=0;entryX=0.5;entryY=1;entryDx=0;entryDy=0;" edge="1" parent="1" source="S9SIUEtnzLuoG3j6Cy7E-1" target="S9SIUEtnzLuoG3j6Cy7E-38">
          <mxGeometry relative="1" as="geometry" />
        </mxCell>
        <mxCell id="S9SIUEtnzLuoG3j6Cy7E-1" value="MODELO" style="whiteSpace=wrap;html=1;align=center;" vertex="1" parent="1">
          <mxGeometry x="160" y="470" width="100" height="40" as="geometry" />
        </mxCell>
        <mxCell id="S9SIUEtnzLuoG3j6Cy7E-39" style="edgeStyle=orthogonalEdgeStyle;rounded=0;orthogonalLoop=1;jettySize=auto;html=1;exitX=0.5;exitY=1;exitDx=0;exitDy=0;entryX=0.5;entryY=0;entryDx=0;entryDy=0;" edge="1" parent="1" source="S9SIUEtnzLuoG3j6Cy7E-2" target="S9SIUEtnzLuoG3j6Cy7E-38">
          <mxGeometry relative="1" as="geometry" />
        </mxCell>
        <mxCell id="S9SIUEtnzLuoG3j6Cy7E-2" value="MONTADOR" style="whiteSpace=wrap;html=1;align=center;" vertex="1" parent="1">
          <mxGeometry x="160" y="170" width="100" height="40" as="geometry" />
        </mxCell>
        <mxCell id="S9SIUEtnzLuoG3j6Cy7E-21" style="edgeStyle=orthogonalEdgeStyle;rounded=0;orthogonalLoop=1;jettySize=auto;html=1;exitX=0.5;exitY=1;exitDx=0;exitDy=0;entryX=0.5;entryY=0;entryDx=0;entryDy=0;" edge="1" parent="1" source="S9SIUEtnzLuoG3j6Cy7E-4" target="S9SIUEtnzLuoG3j6Cy7E-20">
          <mxGeometry relative="1" as="geometry" />
        </mxCell>
        <mxCell id="S9SIUEtnzLuoG3j6Cy7E-28" style="edgeStyle=orthogonalEdgeStyle;rounded=0;orthogonalLoop=1;jettySize=auto;html=1;exitX=0.5;exitY=0;exitDx=0;exitDy=0;entryX=0.5;entryY=1;entryDx=0;entryDy=0;" edge="1" parent="1" source="S9SIUEtnzLuoG3j6Cy7E-4" target="S9SIUEtnzLuoG3j6Cy7E-23">
          <mxGeometry relative="1" as="geometry">
            <Array as="points">
              <mxPoint x="510" y="165" />
              <mxPoint x="440" y="165" />
            </Array>
          </mxGeometry>
        </mxCell>
        <mxCell id="S9SIUEtnzLuoG3j6Cy7E-30" style="edgeStyle=orthogonalEdgeStyle;rounded=0;orthogonalLoop=1;jettySize=auto;html=1;exitX=0.5;exitY=0;exitDx=0;exitDy=0;entryX=0.5;entryY=1;entryDx=0;entryDy=0;" edge="1" parent="1" source="S9SIUEtnzLuoG3j6Cy7E-4" target="S9SIUEtnzLuoG3j6Cy7E-24">
          <mxGeometry relative="1" as="geometry" />
        </mxCell>
        <mxCell id="S9SIUEtnzLuoG3j6Cy7E-4" value="CLIENTES" style="whiteSpace=wrap;html=1;align=center;" vertex="1" parent="1">
          <mxGeometry x="460" y="190" width="100" height="40" as="geometry" />
        </mxCell>
        <mxCell id="S9SIUEtnzLuoG3j6Cy7E-5" value="CODIGO" style="ellipse;whiteSpace=wrap;html=1;align=center;fontStyle=4;" vertex="1" parent="1">
          <mxGeometry x="40" y="530" width="100" height="40" as="geometry" />
        </mxCell>
        <mxCell id="S9SIUEtnzLuoG3j6Cy7E-14" style="edgeStyle=orthogonalEdgeStyle;rounded=0;orthogonalLoop=1;jettySize=auto;html=1;exitX=1;exitY=0.5;exitDx=0;exitDy=0;entryX=0;entryY=0.5;entryDx=0;entryDy=0;" edge="1" parent="1" source="S9SIUEtnzLuoG3j6Cy7E-9" target="S9SIUEtnzLuoG3j6Cy7E-2">
          <mxGeometry relative="1" as="geometry" />
        </mxCell>
        <mxCell id="S9SIUEtnzLuoG3j6Cy7E-9" value="NOMBRE" style="ellipse;whiteSpace=wrap;html=1;align=center;" vertex="1" parent="1">
          <mxGeometry x="10" y="160" width="80" height="20" as="geometry" />
        </mxCell>
        <mxCell id="S9SIUEtnzLuoG3j6Cy7E-13" style="edgeStyle=orthogonalEdgeStyle;rounded=0;orthogonalLoop=1;jettySize=auto;html=1;exitX=1;exitY=0.5;exitDx=0;exitDy=0;entryX=0;entryY=0.5;entryDx=0;entryDy=0;" edge="1" parent="1" source="S9SIUEtnzLuoG3j6Cy7E-12" target="S9SIUEtnzLuoG3j6Cy7E-2">
          <mxGeometry relative="1" as="geometry" />
        </mxCell>
        <mxCell id="S9SIUEtnzLuoG3j6Cy7E-12" value="NIF" style="ellipse;whiteSpace=wrap;html=1;align=center;fontStyle=4;" vertex="1" parent="1">
          <mxGeometry x="10" y="110" width="80" height="30" as="geometry" />
        </mxCell>
        <mxCell id="S9SIUEtnzLuoG3j6Cy7E-18" style="edgeStyle=orthogonalEdgeStyle;rounded=0;orthogonalLoop=1;jettySize=auto;html=1;exitX=1;exitY=0.5;exitDx=0;exitDy=0;entryX=0;entryY=0.5;entryDx=0;entryDy=0;" edge="1" parent="1" source="S9SIUEtnzLuoG3j6Cy7E-15" target="S9SIUEtnzLuoG3j6Cy7E-2">
          <mxGeometry relative="1" as="geometry" />
        </mxCell>
        <mxCell id="S9SIUEtnzLuoG3j6Cy7E-15" value="DIRECCIÓN" style="ellipse;whiteSpace=wrap;html=1;align=center;" vertex="1" parent="1">
          <mxGeometry x="10" y="190" width="80" height="20" as="geometry" />
        </mxCell>
        <mxCell id="S9SIUEtnzLuoG3j6Cy7E-19" style="edgeStyle=orthogonalEdgeStyle;rounded=0;orthogonalLoop=1;jettySize=auto;html=1;exitX=1;exitY=0.5;exitDx=0;exitDy=0;entryX=0;entryY=0.5;entryDx=0;entryDy=0;" edge="1" parent="1" source="S9SIUEtnzLuoG3j6Cy7E-16" target="S9SIUEtnzLuoG3j6Cy7E-2">
          <mxGeometry relative="1" as="geometry" />
        </mxCell>
        <mxCell id="S9SIUEtnzLuoG3j6Cy7E-16" value="TELÉFONO" style="ellipse;whiteSpace=wrap;html=1;align=center;" vertex="1" parent="1">
          <mxGeometry x="10" y="240" width="80" height="20" as="geometry" />
        </mxCell>
        <mxCell id="S9SIUEtnzLuoG3j6Cy7E-22" style="edgeStyle=orthogonalEdgeStyle;rounded=0;orthogonalLoop=1;jettySize=auto;html=1;exitX=0.5;exitY=1;exitDx=0;exitDy=0;entryX=1;entryY=0.5;entryDx=0;entryDy=0;" edge="1" parent="1" source="S9SIUEtnzLuoG3j6Cy7E-20" target="S9SIUEtnzLuoG3j6Cy7E-1">
          <mxGeometry relative="1" as="geometry" />
        </mxCell>
        <mxCell id="S9SIUEtnzLuoG3j6Cy7E-20" value="COMPRAN" style="shape=rhombus;perimeter=rhombusPerimeter;whiteSpace=wrap;html=1;align=center;" vertex="1" parent="1">
          <mxGeometry x="450" y="320" width="120" height="60" as="geometry" />
        </mxCell>
        <mxCell id="S9SIUEtnzLuoG3j6Cy7E-23" value="NIF" style="ellipse;whiteSpace=wrap;html=1;align=center;fontStyle=4;" vertex="1" parent="1">
          <mxGeometry x="400" y="110" width="80" height="30" as="geometry" />
        </mxCell>
        <mxCell id="S9SIUEtnzLuoG3j6Cy7E-24" value="NOMBRE" style="ellipse;whiteSpace=wrap;html=1;align=center;" vertex="1" parent="1">
          <mxGeometry x="530" y="120" width="80" height="20" as="geometry" />
        </mxCell>
        <mxCell id="S9SIUEtnzLuoG3j6Cy7E-31" style="edgeStyle=orthogonalEdgeStyle;rounded=0;orthogonalLoop=1;jettySize=auto;html=1;exitX=0;exitY=0.5;exitDx=0;exitDy=0;entryX=1;entryY=0.25;entryDx=0;entryDy=0;" edge="1" parent="1" source="S9SIUEtnzLuoG3j6Cy7E-25" target="S9SIUEtnzLuoG3j6Cy7E-4">
          <mxGeometry relative="1" as="geometry" />
        </mxCell>
        <mxCell id="S9SIUEtnzLuoG3j6Cy7E-25" value="DIRECCIÓN" style="ellipse;whiteSpace=wrap;html=1;align=center;" vertex="1" parent="1">
          <mxGeometry x="630" y="165" width="80" height="20" as="geometry" />
        </mxCell>
        <mxCell id="S9SIUEtnzLuoG3j6Cy7E-32" style="edgeStyle=orthogonalEdgeStyle;rounded=0;orthogonalLoop=1;jettySize=auto;html=1;exitX=0;exitY=0.5;exitDx=0;exitDy=0;entryX=1;entryY=0.25;entryDx=0;entryDy=0;" edge="1" parent="1" source="S9SIUEtnzLuoG3j6Cy7E-26" target="S9SIUEtnzLuoG3j6Cy7E-4">
          <mxGeometry relative="1" as="geometry" />
        </mxCell>
        <mxCell id="S9SIUEtnzLuoG3j6Cy7E-26" value="TELÉFONO" style="ellipse;whiteSpace=wrap;html=1;align=center;" vertex="1" parent="1">
          <mxGeometry x="630" y="215" width="80" height="20" as="geometry" />
        </mxCell>
        <mxCell id="S9SIUEtnzLuoG3j6Cy7E-34" value="1,N" style="text;strokeColor=none;fillColor=none;spacingLeft=4;spacingRight=4;overflow=hidden;rotatable=0;points=[[0,0.5],[1,0.5]];portConstraint=eastwest;fontSize=12;whiteSpace=wrap;html=1;" vertex="1" parent="1">
          <mxGeometry x="510" y="290" width="40" height="30" as="geometry" />
        </mxCell>
        <mxCell id="S9SIUEtnzLuoG3j6Cy7E-35" value="N,1" style="text;strokeColor=none;fillColor=none;spacingLeft=4;spacingRight=4;overflow=hidden;rotatable=0;points=[[0,0.5],[1,0.5]];portConstraint=eastwest;fontSize=12;whiteSpace=wrap;html=1;" vertex="1" parent="1">
          <mxGeometry x="270" y="460" width="40" height="30" as="geometry" />
        </mxCell>
        <mxCell id="S9SIUEtnzLuoG3j6Cy7E-37" style="edgeStyle=orthogonalEdgeStyle;rounded=0;orthogonalLoop=1;jettySize=auto;html=1;exitX=0;exitY=0.5;exitDx=0;exitDy=0;entryX=1;entryY=0.5;entryDx=0;entryDy=0;" edge="1" parent="1" source="S9SIUEtnzLuoG3j6Cy7E-36" target="S9SIUEtnzLuoG3j6Cy7E-20">
          <mxGeometry relative="1" as="geometry" />
        </mxCell>
        <mxCell id="S9SIUEtnzLuoG3j6Cy7E-36" value="CANTIDAD" style="ellipse;whiteSpace=wrap;html=1;align=center;" vertex="1" parent="1">
          <mxGeometry x="620" y="335" width="80" height="30" as="geometry" />
        </mxCell>
        <mxCell id="S9SIUEtnzLuoG3j6Cy7E-38" value="MONTAN" style="shape=rhombus;perimeter=rhombusPerimeter;whiteSpace=wrap;html=1;align=center;" vertex="1" parent="1">
          <mxGeometry x="150" y="300" width="120" height="60" as="geometry" />
        </mxCell>
        <mxCell id="S9SIUEtnzLuoG3j6Cy7E-41" value="2,N" style="text;strokeColor=none;fillColor=none;spacingLeft=4;spacingRight=4;overflow=hidden;rotatable=0;points=[[0,0.5],[1,0.5]];portConstraint=eastwest;fontSize=12;whiteSpace=wrap;html=1;" vertex="1" parent="1">
          <mxGeometry x="220" y="270" width="40" height="30" as="geometry" />
        </mxCell>
        <mxCell id="S9SIUEtnzLuoG3j6Cy7E-43" style="edgeStyle=orthogonalEdgeStyle;rounded=0;orthogonalLoop=1;jettySize=auto;html=1;exitX=1;exitY=0.5;exitDx=0;exitDy=0;entryX=0;entryY=0.5;entryDx=0;entryDy=0;" edge="1" parent="1" source="S9SIUEtnzLuoG3j6Cy7E-42" target="S9SIUEtnzLuoG3j6Cy7E-38">
          <mxGeometry relative="1" as="geometry" />
        </mxCell>
        <mxCell id="S9SIUEtnzLuoG3j6Cy7E-42" value="FECHA" style="ellipse;whiteSpace=wrap;html=1;align=center;" vertex="1" parent="1">
          <mxGeometry x="40" y="300" width="70" height="20" as="geometry" />
        </mxCell>
        <mxCell id="S9SIUEtnzLuoG3j6Cy7E-45" style="edgeStyle=orthogonalEdgeStyle;rounded=0;orthogonalLoop=1;jettySize=auto;html=1;exitX=1;exitY=0.5;exitDx=0;exitDy=0;entryX=0;entryY=0.5;entryDx=0;entryDy=0;" edge="1" parent="1" source="S9SIUEtnzLuoG3j6Cy7E-44" target="S9SIUEtnzLuoG3j6Cy7E-38">
          <mxGeometry relative="1" as="geometry" />
        </mxCell>
        <mxCell id="S9SIUEtnzLuoG3j6Cy7E-44" value="CANTIDAD" style="ellipse;whiteSpace=wrap;html=1;align=center;" vertex="1" parent="1">
          <mxGeometry x="30" y="345" width="80" height="20" as="geometry" />
        </mxCell>
      </root>
    </mxGraphModel>
  </diagram>
</mxfile>
